<svg xmlns="http://www.w3.org/2000/svg" width="1242" height="1242" viewBox="0 0 1242 1242">
  <defs>
    <radialGradient id="sky" cx="50%" cy="18%" r="95%">
      <stop offset="0%" stop-color="#20222A"/>
      <stop offset="55%" stop-color="#16171A"/>
      <stop offset="100%" stop-color="#0E0F12"/>
    </radialGradient>
  </defs>
  <rect width="1242" height="1242" fill="url(#sky)"/>

  <!-- etched starfield -->
  <g fill="#ECEAE3">
    <circle cx="120" cy="130" r="2.4" opacity=".55"/><circle cx="340" cy="80" r="1.6" opacity=".35"/>
    <circle cx="565" cy="150" r="2" opacity=".45"/><circle cx="800" cy="70" r="1.5" opacity=".3"/>
    <circle cx="1010" cy="140" r="2.6" opacity=".55"/><circle cx="1160" cy="90" r="1.6" opacity=".3"/>
    <circle cx="220" cy="300" r="1.5" opacity=".3"/><circle cx="470" cy="260" r="1.8" opacity=".4"/>
    <circle cx="700" cy="320" r="1.4" opacity=".28"/><circle cx="940" cy="280" r="2" opacity=".42"/>
    <circle cx="1150" cy="330" r="1.5" opacity=".3"/><circle cx="90" cy="480" r="1.8" opacity=".35"/>
    <circle cx="330" cy="520" r="1.4" opacity=".25"/><circle cx="600" cy="470" r="2.2" opacity=".45"/>
    <circle cx="860" cy="520" r="1.5" opacity=".28"/><circle cx="1120" cy="560" r="1.8" opacity=".32"/>
    <circle cx="180" cy="700" r="1.5" opacity=".25"/><circle cx="450" cy="740" r="1.6" opacity=".28"/>
    <circle cx="760" cy="690" r="1.4" opacity=".22"/><circle cx="1020" cy="760" r="1.6" opacity=".26"/>
    <circle cx="300" cy="940" r="1.4" opacity=".2"/><circle cx="640" cy="980" r="1.5" opacity=".22"/>
    <circle cx="950" cy="930" r="1.4" opacity=".2"/><circle cx="1130" cy="1050" r="1.3" opacity=".18"/>
    <circle cx="140" cy="1100" r="1.3" opacity=".18"/>
  </g>

  <!-- the red dot: you (slightly off-center upper-right, clear of UI text) -->
  <circle cx="885" cy="205" r="7" fill="#CE4A33"/>
  <circle cx="885" cy="205" r="16" fill="none" stroke="#CE4A33" stroke-width="1.2" opacity=".35"/>

  <!-- the arc: rising trajectory, barely there -->
  <path d="M -40 1010 Q 500 900 900 560 T 1300 160" fill="none" stroke="#ECEAE3" stroke-width="2.5" opacity=".14"/>
  <path d="M -40 1010 Q 500 900 900 560" fill="none" stroke="#C9A227" stroke-width="2.5" opacity=".22"/>
</svg>
