<svg xmlns="http://www.w3.org/2000/svg" width="1242" height="1656" viewBox="0 0 1242 1656">
  <rect width="1242" height="1656" fill="#16171A"/>
  <g fill="#ECEAE3"><circle cx="150" cy="180" r="2" opacity=".4"/><circle cx="1080" cy="140" r="2.4" opacity=".5"/><circle cx="920" cy="300" r="1.5" opacity=".3"/><circle cx="240" cy="420" r="1.5" opacity=".28"/><circle cx="1120" cy="520" r="1.6" opacity=".3"/><circle cx="130" cy="1300" r="1.5" opacity=".25"/><circle cx="1100" cy="1420" r="1.8" opacity=".3"/></g>
  <g stroke="#C9A227" fill="none" stroke-width="5" stroke-linecap="round" transform="translate(561,200) scale(1.9)" opacity=".95">
    <path d="M32 17 v5"/>
    <path d="M32 43 c-5.5 -3.5 -6 -10 0 -17 c6 7 5.5 13.5 0 17 Z"/>
    <circle cx="32" cy="47.5" r=".9" fill="#C9A227"/>
  </g>
  <text x="621" y="500" text-anchor="middle" font-family="Georgia,serif" font-style="italic" font-size="110" fill="#ECEAE3">The Mentor</text>
  <rect x="589" y="560" width="64" height="2" fill="#C9A227" opacity=".7"/>
  <text x="621" y="700" text-anchor="middle" font-family="Georgia,serif" font-size="50" fill="#ECEAE3">When your growth curve flattens,</text>
  <text x="621" y="780" text-anchor="middle" font-family="Georgia,serif" font-size="50" fill="#ECEAE3">you don't need comfort.</text>
  <text x="621" y="920" text-anchor="middle" font-family="Georgia,serif" font-style="italic" font-size="54" fill="#C9A227">You need a qualified pair of eyes</text>
  <text x="621" y="1005" text-anchor="middle" font-family="Georgia,serif" font-style="italic" font-size="54" fill="#C9A227">that stays present.</text>
  <polyline points="300,1280 420,1265 540,1272 660,1240 780,1220 900,1160" fill="none" stroke="#C9A227" stroke-width="4" stroke-linecap="round" opacity=".85"/>
  <circle cx="900" cy="1160" r="8" fill="#C9A227"/>
  <text x="621" y="1420" text-anchor="middle" font-family="Georgia,serif" font-size="38" letter-spacing="4" fill="#9C9C93">Sunday evenings · Twenty minutes · Three questions</text>
  <text x="621" y="1520" text-anchor="middle" font-family="Georgia,serif" font-style="italic" font-size="34" fill="#6E6E67">DoubleMi</text>
  <circle cx="740" cy="1508" r="7" fill="#CE4A33"/>
</svg>
