<svg xmlns="http://www.w3.org/2000/svg" width="1242" height="1656" viewBox="0 0 1242 1656">
  <rect width="1242" height="1656" fill="#16171A"/>
  <g fill="#ECEAE3"><circle cx="150" cy="180" r="2" opacity=".4"/><circle cx="1080" cy="140" r="2.4" opacity=".5"/><circle cx="920" cy="300" r="1.5" opacity=".3"/><circle cx="240" cy="420" r="1.5" opacity=".28"/><circle cx="1120" cy="520" r="1.6" opacity=".3"/><circle cx="130" cy="1300" r="1.5" opacity=".25"/><circle cx="1100" cy="1420" r="1.8" opacity=".3"/></g>
  <g stroke="#C9A227" fill="none" stroke-width="5" stroke-linecap="round" transform="translate(561,180) scale(1.9)" opacity=".95">
    <path d="M32 17 v5"/>
    <path d="M32 43 c-5.5 -3.5 -6 -10 0 -17 c6 7 5.5 13.5 0 17 Z"/>
    <circle cx="32" cy="47.5" r=".9" fill="#C9A227"/>
  </g>
  <text x="621" y="480" text-anchor="middle" font-family="'Songti SC',serif" font-size="120" letter-spacing="40" fill="#ECEAE3">领 路 人</text>
  <text x="621" y="560" text-anchor="middle" font-family="Georgia,serif" font-style="italic" font-size="44" letter-spacing="6" fill="#9C9C93">The Mentor</text>
  <rect x="589" y="620" width="64" height="2" fill="#C9A227" opacity=".7"/>
  <text x="621" y="760" text-anchor="middle" font-family="'Songti SC',serif" font-size="52" letter-spacing="6" fill="#ECEAE3">当成长曲线变平</text>
  <text x="621" y="850" text-anchor="middle" font-family="'Songti SC',serif" font-size="52" letter-spacing="6" fill="#ECEAE3">你需要的不是安慰</text>
  <text x="621" y="972" text-anchor="middle" font-family="'Songti SC',serif" font-size="56" letter-spacing="4" fill="#C9A227">是一双持续在场的、</text>
  <text x="621" y="1058" text-anchor="middle" font-family="'Songti SC',serif" font-size="56" letter-spacing="4" fill="#C9A227">有资格的眼睛</text>
  <polyline points="300,1300 420,1285 540,1292 660,1260 780,1240 900,1180" fill="none" stroke="#C9A227" stroke-width="4" stroke-linecap="round" opacity=".85"/>
  <circle cx="900" cy="1180" r="8" fill="#C9A227"/>
  <text x="621" y="1440" text-anchor="middle" font-family="'Songti SC',serif" font-size="40" letter-spacing="8" fill="#9C9C93">每周日晚 · 二十分钟 · 三个问题</text>
  <text x="621" y="1530" text-anchor="middle" font-family="Georgia,serif" font-style="italic" font-size="36" letter-spacing="3" fill="#6E6E67">DoubleMi</text>
  <circle cx="820" cy="1518" r="7" fill="#CE4A33"/>
</svg>
